# xmcd
#
# Track frame offsets: 
#        150
#        12860
#        28755
#        44290
#        55060
#        66697
#        80142
#        96477
#        114610
#        128385
#        149952
#        162495
#        173010
#        184737
#        198397
#        212332
#        229110
#        242157
#        256697
#        269782
#        279635
#
# Disc length: 3947 seconds
#
# Revision: 4
# Processed by: cddbd v1.5.2PL0 Copyright (c) Steve Scherf et al.
# Submitted via: ExactAudioCopy v0.99pb5
#
DISCID=3f0f6915
DTITLE=Various Artist - Country Duets Vol. 2
DYEAR=1990
DGENRE=Country
TTITLE0=George Jones and Johnny Paycheck - Proud Mary
TTITLE1=Merle Haggard and Willie Nelson - Reasons to Quit
TTITLE2=Johnny Duncan and Janie Fricke - Thinkin' of a Rendezvous
TTITLE3=George Jones and Johnny Paycheck - When you're ugly like us
TTITLE4=Moe Bandy and Joe Stampley - Holding the Bag
TTITLE5=Bobby Bare and Lacey J.Dalton - It's a dirty Job
TTITLE6=Merle Haggard and George Jones - C.C.Waterback
TTITLE7=Willie Nelson and Waylon Jennings - A Whiter Shade of Pale
TTITLE8=Johnny Cash and Waylon Jennings - Even Cowgirls get the Blues
TTITLE9=Merle Haggard and Willie Nelson - Poncho and Lefty
TTITLE10=June Carter and Johnny Cash - Jackson
TTITLE11=George Jones and Johnny Paycheck - Maybellene
TTITLE12=Moe Bandy and Joe Stampley - Just Good ol' Boys
TTITLE13=Johnny Cash and June Carter - If I were a Carpenter
TTITLE14=Lester Flatt and Earl Scruggs - Dueling Banjo's
TTITLE15=George Jones and Waylon Jennings - Night Life
TTITLE16=Tammy Wynnette and George Jones - Southern California
TTITLE17=Charlie Rich and Janie Fricke - On my Knees
TTITLE18=Moe Bandy and Joe Stampley - Where's the Dress
TTITLE19=George Jones and Willie Nelson - I gotta get Drunk
TTITLE20=Tammy Wynnette and Mark Gray - Sometimes when We Touch
EXTD=
EXTT0=
EXTT1=
EXTT2=
EXTT3=
EXTT4=
EXTT5=
EXTT6=
EXTT7=
EXTT8=
EXTT9=
EXTT10=
EXTT11=
EXTT12=
EXTT13=
EXTT14=
EXTT15=
EXTT16=
EXTT17=
EXTT18=
EXTT19=
EXTT20=
PLAYORDER=
